<?xml version="1.0" encoding="UTF-8" standalone="no"?>
<!DOCTYPE svg PUBLIC "-//W3C//DTD SVG 1.1//EN" "http://www.w3.org/Graphics/SVG/1.1/DTD/svg11.dtd">
<svg width="100%" height="100%" viewBox="0 0 1024 162" version="1.1" xmlns="http://www.w3.org/2000/svg" xmlns:xlink="http://www.w3.org/1999/xlink" xml:space="preserve" xmlns:serif="http://www.serif.com/" style="fill-rule:evenodd;clip-rule:evenodd;stroke-linejoin:round;stroke-miterlimit:2;">
    <g id="path55" transform="matrix(2.447035,0,0,2.447035,4.572419,4.79302)">
        <path d="M19.352,0C17.878,0 16.593,0.264 15.346,0.793C14.136,1.322 13.078,2.039 12.133,2.984L35.982,29.139L59.793,2.984C58.848,2.039 57.789,1.322 56.504,0.793C55.332,0.264 53.973,0 52.574,0C51.1,0 49.702,0.302 48.455,0.869C47.17,1.436 46.112,2.267 45.129,3.25L35.982,13.379L26.723,3.25C25.778,2.267 24.719,1.436 23.396,0.869C22.225,0.302 20.826,0 19.352,0ZM35.982,33.107L12.133,59.301C13.078,60.208 14.136,60.963 15.346,61.492C16.593,62.021 17.879,62.285 19.277,62.285C20.827,62.285 22.149,61.945 23.396,61.416C24.719,60.811 25.852,60.018 26.797,59.035L35.982,48.906L45.166,59.035C46.111,60.018 47.17,60.811 48.455,61.416C49.702,61.945 51.062,62.285 52.574,62.285C53.973,62.285 55.332,62.021 56.504,61.492C57.789,60.963 58.848,60.208 59.793,59.301L35.982,33.107Z" style="fill:white;"/>
    </g>
    <g id="path69" transform="matrix(2.447035,0,0,2.447035,4.572419,4.79302)">
        <path d="M7.861,7.861C6.35,7.899 4.876,8.201 3.553,8.768C2.192,9.335 1.02,10.129 0,11.111L18.219,31.143L0,51.137C1.02,52.157 2.192,52.95 3.553,53.555C4.876,54.159 6.35,54.424 7.861,54.5C9.487,54.424 11,54.161 12.398,53.48C13.797,52.838 15.005,51.967 16.025,50.871L33.979,31.143L16.025,11.451C14.929,10.393 13.758,9.524 12.359,8.844C10.961,8.201 9.487,7.899 7.861,7.861ZM63.951,7.861C62.326,7.899 60.889,8.201 59.49,8.844C58.092,9.524 56.882,10.393 55.824,11.451L37.947,31.143L55.824,50.871C56.882,51.967 58.092,52.838 59.49,53.48C60.889,54.161 62.326,54.424 63.951,54.5C65.576,54.424 66.974,54.159 68.297,53.555C69.733,52.95 70.829,52.157 71.85,51.137L53.67,31.143L71.85,11.111C70.829,10.129 69.733,9.335 68.297,8.768C66.974,8.201 65.576,7.899 63.951,7.861ZM225.26,11.262C222.69,11.262 220.272,12.32 218.533,14.059L234.143,31.105L218.533,48.301C220.272,50.039 222.69,51.137 225.26,51.137C228.094,51.137 230.552,49.965 232.291,48.037L240.908,38.512L249.525,48.037C251.264,49.965 253.721,51.137 256.518,51.137C259.125,51.137 261.506,50.039 263.244,48.301L247.635,31.105L263.244,14.059C261.506,12.32 259.125,11.262 256.518,11.262C253.721,11.262 251.264,12.434 249.525,14.324L240.908,23.771L232.215,14.324C230.401,12.397 228.094,11.262 225.26,11.262ZM376.82,11.262C374.137,11.262 371.755,12.32 370.092,14.059L385.627,31.105L370.092,48.301C371.755,50.039 374.137,51.137 376.82,51.137C379.542,51.137 381.998,49.965 383.736,48.037L392.354,38.512L401.008,48.037C402.671,49.965 405.129,51.137 407.926,51.137C410.534,51.137 412.99,50.039 414.729,48.301L399.082,31.105L414.729,14.059C412.99,12.32 410.534,11.262 407.926,11.262C405.129,11.262 402.671,12.434 401.008,14.324L392.354,23.771L383.66,14.324C381.959,12.397 379.617,11.262 376.82,11.262Z" style="fill:rgb(229,112,0);"/>
    </g>
    <g id="path83" transform="matrix(2.447035,0,0,2.447035,4.572419,4.79302)">
        <path d="M85.494,11.188C83.491,11.188 81.752,12.849 81.752,14.928L81.752,51.137C87.194,51.137 91.691,46.677 91.691,41.121L111.725,41.121C117.243,41.121 121.701,36.661 121.701,31.105L121.701,21.203C121.701,15.647 117.243,11.187 111.725,11.187L85.494,11.188ZM131.074,11.188C129.071,11.188 127.408,12.849 127.408,14.928L127.408,51.137C132.889,51.137 137.424,46.677 137.424,41.121L137.424,38.588L148.725,38.588L154.508,46.828C156.398,49.474 159.232,51.137 162.709,51.137C164.372,51.137 165.997,50.759 167.32,49.965L159.232,38.512C163.843,37.567 167.32,33.524 167.32,28.648L167.32,21.203C167.32,15.647 162.861,11.188 157.305,11.188L131.074,11.188ZM182.93,11.188C177.412,11.188 173.027,15.647 173.027,21.203L173.027,41.121C173.027,46.677 177.412,51.137 182.93,51.137L202.924,51.137C208.442,51.137 212.902,46.677 212.902,41.121L212.902,21.203C212.902,15.647 208.442,11.188 202.924,11.188L182.93,11.188ZM272.693,11.188C270.539,11.188 268.877,12.849 268.877,14.928L268.877,51.137C274.357,51.137 278.893,46.677 278.893,41.121L278.893,21.996C278.893,21.505 279.195,21.127 279.762,21.127C280.026,21.127 280.329,21.391 280.48,21.58L291.592,46.033C291.97,46.902 292.914,47.545 293.859,47.545C294.842,47.545 295.711,46.942 296.164,46.072L307.238,21.58C307.389,21.391 307.655,21.127 308.033,21.127C308.449,21.127 308.863,21.505 308.863,21.996L308.863,41.121C308.863,46.677 313.323,51.137 318.766,51.137L318.766,14.928C318.766,12.849 317.103,11.188 315.1,11.188L308.863,11.188C304.781,11.188 301.304,13.643 299.717,17.195L299.717,17.045L293.859,29.934L288.039,17.045L288.039,17.195C286.527,13.643 282.937,11.188 278.893,11.188L272.693,11.188ZM334.488,11.188C328.932,11.188 324.473,15.647 324.473,21.203L324.473,41.121C324.473,46.677 328.932,51.137 334.488,51.137L354.369,51.137C359.925,51.137 364.385,46.677 364.385,41.121L364.385,21.203C364.385,15.647 359.925,11.188 354.369,11.188L334.488,11.188ZM91.691,21.203L109.191,21.203C109.191,21.203 111.725,21.201 111.725,23.658L111.725,29.857C111.725,29.857 111.724,32.391 109.191,32.391L91.691,32.391L91.691,21.203ZM137.424,21.203L154.848,21.203C154.848,21.203 157.305,21.201 157.305,23.658L157.305,27.439C157.305,27.439 157.304,29.857 154.848,29.857L137.424,29.857L137.424,21.203ZM185.463,21.203L200.391,21.203C200.391,21.203 202.924,21.201 202.924,23.658L202.924,38.588C202.924,38.588 202.923,41.121 200.391,41.121L185.463,41.121C185.463,41.121 182.93,41.12 182.93,38.588L182.93,23.658C182.93,23.658 182.931,21.203 185.463,21.203ZM336.945,21.203L351.912,21.203C351.912,21.203 354.369,21.201 354.369,23.658L354.369,38.588C354.369,38.588 354.369,41.121 351.912,41.121L336.945,41.121C336.945,41.121 334.488,41.12 334.488,38.588L334.488,23.658C334.488,23.658 334.489,21.203 336.945,21.203Z" style="fill:white;"/>
    </g>
</svg>
